<svg width="36" height="35" viewBox="0 0 36 35" fill="none" xmlns="http://www.w3.org/2000/svg">
<path fill-rule="evenodd" clip-rule="evenodd" d="M0.976501 16.4713C0.358524 15.8428 0 14.9906 0 14.0761C0 12.7567 0.743977 11.5972 1.85098 11.0311C1.62148 10.5654 1.49998 10.0496 1.49998 9.51086C1.49998 8.19151 2.2455 7.03045 3.3525 6.46585C3.0105 5.77194 2.91002 4.97303 3.0825 4.17868C3.41845 2.6387 4.84798 1.52172 6.48148 1.52172H20.25C21.2925 1.52172 22.9725 1.86411 24.2205 2.51544C24.7425 1.05 26.1285 0 27.75 0H32.25C34.3185 0 36 1.70583 36 3.80433V15.9783C36 18.0767 34.3185 19.7826 32.25 19.7827H24.7501C24.3361 19.7827 24 19.4418 24 19.0218V18.7311L23.8215 18.8239L19.5 28.3181V33.4783C19.5 33.7095 19.3965 33.9287 19.218 34.0733L19.2164 34.0745C19.1504 34.1265 18.0423 35 16.5 35C14.7645 35 12 32.2137 12 28.9131C12 26.8313 12.735 24.2398 13.194 22.8261H3.9285C1.90955 22.8261 0.192024 21.3105 0.0165253 19.3763C-0.0809975 18.2914 0.275978 17.2489 0.976501 16.4713ZM3.79048 11.6824C3.69753 11.964 3.45298 12.1633 3.1635 12.1983C2.21548 12.3093 1.49998 13.1159 1.50005 14.0761C1.50005 14.7852 1.89302 15.4304 2.52752 15.7576C2.7675 15.8839 2.92352 16.1304 2.934 16.4058C2.94448 16.6813 2.808 16.94 2.5785 17.083C1.84204 17.5441 1.431 18.3689 1.51052 19.2363C1.6155 20.3958 2.6775 21.3043 3.9285 21.3043H14.25C14.496 21.3043 14.727 21.4276 14.868 21.633C15.0075 21.84 15.0375 22.1032 14.9505 22.3361C14.9502 22.3369 14.9493 22.3394 14.9477 22.3437C14.8763 22.5383 13.5 26.2919 13.5 28.9131C13.5 31.4057 15.678 33.4783 16.5 33.4783C17.1465 33.4783 17.688 33.2409 18.0001 33.0659V28.1522C18.0001 28.0427 18.024 27.9331 18.069 27.8327L22.569 17.9413C22.641 17.7846 22.7625 17.6568 22.9141 17.5807L24.414 16.8198C24.648 16.7042 24.924 16.7178 25.143 16.8517C25.365 16.9918 25.5 17.2367 25.5 17.5V18.2609H32.25C33.4905 18.2609 34.5 17.2368 34.5 15.9783V3.80433C34.5 2.54583 33.4905 1.52172 32.25 1.52172H27.75C26.5095 1.52172 25.5 2.54583 25.5 3.80433C25.5 4.1117 25.317 4.39017 25.0365 4.50737C24.7575 4.623 24.4335 4.55909 24.219 4.34303C23.511 3.62322 21.468 3.04344 20.25 3.04344H6.48141C5.54541 3.04344 4.73238 3.65824 4.54788 4.50737C4.39938 5.18916 4.59738 5.85112 5.09091 6.32284C5.30388 6.52677 5.38038 6.83564 5.28891 7.11718C5.19595 7.39873 4.95141 7.59803 4.66193 7.63305C3.71545 7.74412 2.99995 8.55066 2.99995 9.51086C2.99995 10.0344 3.21145 10.5243 3.59248 10.8881C3.80545 11.092 3.88195 11.4009 3.79048 11.6824Z" fill="#D8D8D8"/>
</svg>
