<svg width="36" height="35" viewBox="0 0 36 35" fill="none" xmlns="http://www.w3.org/2000/svg">
<path fill-rule="evenodd" clip-rule="evenodd" d="M35.0235 18.5287C35.6415 19.1572 36 20.0094 36 20.9239C36 22.2433 35.256 23.4028 34.149 23.9689C34.3785 24.4346 34.5 24.9504 34.5 25.4891C34.5 26.8085 33.7545 27.9696 32.6475 28.5341C32.9895 29.2281 33.09 30.027 32.9175 30.8213C32.5815 32.3613 31.152 33.4783 29.5185 33.4783H15.75C14.7075 33.4783 13.0275 33.1359 11.7795 32.4846C11.2575 33.95 9.87145 35 8.24998 35H3.74998C1.68152 35 0 33.2942 0 31.1957V19.0217C0 16.9233 1.68152 15.2174 3.74998 15.2173H11.2499C11.6639 15.2173 12 15.5582 12 15.9782V16.2689L12.1785 16.1761L16.5 6.68192V1.52172C16.5 1.29046 16.6035 1.07133 16.782 0.92674L16.7836 0.925476C16.8496 0.873452 17.9577 0 19.5 0C21.2355 0 24 2.78628 24 6.08694C24 8.16868 23.265 10.7602 22.806 12.1739H32.0715C34.0905 12.1739 35.808 13.6895 35.9835 15.6237C36.081 16.7086 35.724 17.7511 35.0235 18.5287ZM32.2095 23.3176C32.3025 23.036 32.547 22.8367 32.8365 22.8017C33.7845 22.6907 34.5 21.8841 34.5 20.9239C34.5 20.2148 34.107 19.5696 33.4725 19.2424C33.2325 19.1161 33.0765 18.8696 33.066 18.5942C33.0555 18.3187 33.192 18.06 33.4215 17.917C34.158 17.4559 34.569 16.6311 34.4895 15.7637C34.3845 14.6042 33.3225 13.6957 32.0715 13.6957H21.75C21.504 13.6957 21.273 13.5724 21.132 13.367C20.9925 13.16 20.9625 12.8968 21.0495 12.6639C21.0498 12.6631 21.0507 12.6606 21.0523 12.6563C21.1237 12.4617 22.5 8.7081 22.5 6.08694C22.5 3.59433 20.322 1.52172 19.5 1.52172C18.8535 1.52172 18.312 1.75911 17.9999 1.93409V6.84776C17.9999 6.95733 17.976 7.06689 17.931 7.16733L13.431 17.0587C13.359 17.2154 13.2375 17.3432 13.0859 17.4193L11.586 18.1802C11.352 18.2958 11.076 18.2822 10.857 18.1483C10.635 18.0082 10.5 17.7633 10.5 17.5V16.7391H3.74998C2.50945 16.7391 1.49998 17.7632 1.49998 19.0217V31.1957C1.49998 32.4542 2.50945 33.4783 3.74998 33.4783H8.24998C9.4905 33.4783 10.5 32.4542 10.5 31.1957C10.5 30.8883 10.683 30.6098 10.9635 30.4926C11.2425 30.377 11.5665 30.4409 11.781 30.657C12.489 31.3768 14.532 31.9566 15.75 31.9566H29.5186C30.4546 31.9566 31.2676 31.3418 31.4521 30.4926C31.6006 29.8108 31.4026 29.1489 30.9091 28.6772C30.6961 28.4732 30.6196 28.1644 30.7111 27.8828C30.804 27.6013 31.0486 27.402 31.3381 27.3669C32.2845 27.2559 33 26.4493 33 25.4891C33 24.9656 32.7885 24.4757 32.4075 24.1119C32.1945 23.908 32.118 23.5991 32.2095 23.3176Z" fill="#D8D8D8"/>
</svg>
